<svg width="458" height="459" xmlns="http://www.w3.org/2000/svg" xmlns:xlink="http://www.w3.org/1999/xlink" overflow="hidden"><defs><clipPath id="clip0"><path d="M409 133 867 133 867 592 409 592Z" fill-rule="evenodd" clip-rule="evenodd"/></clipPath><clipPath id="clip1"><path d="M409 133 867 133 867 591 409 591Z" fill-rule="evenodd" clip-rule="evenodd"/></clipPath><clipPath id="clip2"><path d="M409 133 867 133 867 591 409 591Z" fill-rule="evenodd" clip-rule="evenodd"/></clipPath><clipPath id="clip3"><path d="M428 139 865 139 865 576 428 576Z" fill-rule="evenodd" clip-rule="evenodd"/></clipPath><clipPath id="clip4"><path d="M428 139 865 139 865 576 428 576Z" fill-rule="evenodd" clip-rule="evenodd"/></clipPath><clipPath id="clip5"><path d="M448 146 862 146 862 561 448 561Z" fill-rule="evenodd" clip-rule="evenodd"/></clipPath><clipPath id="clip6"><path d="M448 145 862 145 862 561 448 561Z" fill-rule="evenodd" clip-rule="evenodd"/></clipPath><clipPath id="clip7"><path d="M477 155 861 155 861 538 477 538Z" fill-rule="evenodd" clip-rule="evenodd"/></clipPath><clipPath id="clip8"><path d="M477 155 861 155 861 538 477 538Z" fill-rule="evenodd" clip-rule="evenodd"/></clipPath><clipPath id="clip9"><path d="M504 163 856 163 856 515 504 515Z" fill-rule="evenodd" clip-rule="evenodd"/></clipPath><clipPath id="clip10"><path d="M504 163 856 163 856 515 504 515Z" fill-rule="evenodd" clip-rule="evenodd"/></clipPath><clipPath id="clip11"><path d="M534 175 847 175 847 488 534 488Z" fill-rule="evenodd" clip-rule="evenodd"/></clipPath><clipPath id="clip12"><path d="M534 175 847 175 847 488 534 488Z" fill-rule="evenodd" clip-rule="evenodd"/></clipPath><clipPath id="clip13"><path d="M566 189 837 189 837 461 566 461Z" fill-rule="evenodd" clip-rule="evenodd"/></clipPath><clipPath id="clip14"><path d="M565 189 837 189 837 461 565 461Z" fill-rule="evenodd" clip-rule="evenodd"/></clipPath><clipPath id="clip15"><path d="M594 208 824 208 824 438 594 438Z" fill-rule="evenodd" clip-rule="evenodd"/></clipPath><clipPath id="clip16"><path d="M594 207 824 207 824 438 594 438Z" fill-rule="evenodd" clip-rule="evenodd"/></clipPath><clipPath id="clip17"><path d="M624 221 813 221 813 410 624 410Z" fill-rule="evenodd" clip-rule="evenodd"/></clipPath><clipPath id="clip18"><path d="M624 221 813 221 813 410 624 410Z" fill-rule="evenodd" clip-rule="evenodd"/></clipPath><clipPath id="clip19"><path d="M456 29 1026 29 1026 599 456 599Z" fill-rule="evenodd" clip-rule="evenodd"/></clipPath><clipPath id="clip20"><path d="M647 235 801 235 801 389 647 389Z" fill-rule="evenodd" clip-rule="evenodd"/></clipPath><clipPath id="clip21"><path d="M647 235 801 235 801 389 647 389Z" fill-rule="evenodd" clip-rule="evenodd"/></clipPath><clipPath id="clip22"><path d="M510 78 974 78 974 543 510 543Z" fill-rule="evenodd" clip-rule="evenodd"/></clipPath><clipPath id="clip23"><path d="M676 253 788 253 788 365 676 365Z" fill-rule="evenodd" clip-rule="evenodd"/></clipPath><clipPath id="clip24"><path d="M676 253 788 253 788 365 676 365Z" fill-rule="evenodd" clip-rule="evenodd"/></clipPath><clipPath id="clip25"><path d="M576 139 914 139 914 477 576 477Z" fill-rule="evenodd" clip-rule="evenodd"/></clipPath><clipPath id="clip26"><path d="M701 268 774 268 774 341 701 341Z" fill-rule="evenodd" clip-rule="evenodd"/></clipPath><clipPath id="clip27"><path d="M701 268 774 268 774 341 701 341Z" fill-rule="evenodd" clip-rule="evenodd"/></clipPath><clipPath id="clip28"><path d="M636 193 856 193 856 414 636 414Z" fill-rule="evenodd" clip-rule="evenodd"/></clipPath><clipPath id="clip29"><path d="M718 278 766 278 766 326 718 326Z" fill-rule="evenodd" clip-rule="evenodd"/></clipPath><clipPath id="clip30"><path d="M718 278 766 278 766 326 718 326Z" fill-rule="evenodd" clip-rule="evenodd"/></clipPath><clipPath id="clip31"><path d="M675 229 820 229 820 374 675 374Z" fill-rule="evenodd" clip-rule="evenodd"/></clipPath></defs><g clip-path="url(#clip0)" transform="translate(-409 -133)"><g clip-path="url(#clip1)"><g clip-path="url(#clip2)"><path d="M829.999 459.751C750.751 574.833 483.604 603.547 429.164 502.936 374.723 402.095 533.22 172.16 666.908 157.689 800.367 143.447 909.247 344.669 829.999 459.751Z" fill="#7030A0"/></g></g><g clip-path="url(#clip3)"><g clip-path="url(#clip4)"><path d="M829.696 450.769C754.081 560.575 499.183 587.971 447.239 491.974 395.295 395.757 546.524 176.365 674.083 162.557 801.422 148.968 905.31 340.963 829.696 450.769Z" fill="#8439BD"/></g></g><g clip-path="url(#clip5)"><g clip-path="url(#clip6)"><path d="M124.998 92.191C53.3628 196.217-188.12 222.172-237.33 131.227-286.54 40.074-143.27-167.771-22.4248-180.852 98.2125-193.726 196.633-11.8353 124.998 92.191Z" fill="#9A57CD" transform="matrix(1 0 -0 1.00242 703.556 349.66)"/></g></g><g clip-path="url(#clip7)"><g clip-path="url(#clip8)"><path d="M115.638 85.2878C49.3671 181.525-174.033 205.536-219.559 121.401-265.084 37.0733-132.542-155.208-20.7457-167.31 90.8584-179.22 181.909-10.9491 115.638 85.2878Z" fill="#AC74D6" transform="matrix(1.00261 0 -0 1 714.037 342.956)"/></g></g><g clip-path="url(#clip9)"><g clip-path="url(#clip10)"><path d="M827.563 414.127C766.656 502.575 561.337 524.643 519.497 447.317 477.656 369.815 599.47 193.097 702.218 181.975 804.789 171.029 888.47 325.68 827.563 414.127Z" fill="#BF94E0"/></g></g><g clip-path="url(#clip11)"><g clip-path="url(#clip12)"><path d="M821.713 398.304C767.555 476.952 584.985 496.574 547.78 427.816 510.575 358.901 618.893 201.762 710.256 191.872 801.463 182.14 875.872 319.656 821.713 398.304Z" fill="#CFAEE8"/></g></g><g clip-path="url(#clip13)"><g clip-path="url(#clip14)"><path d="M81.8222 60.3473C34.9307 128.442-123.141 145.431-155.353 85.8997-187.566 26.232-93.7829-109.821-14.6791-118.384 64.2889-126.811 128.714-7.74728 81.8222 60.3473Z" fill="#D7BAEC" transform="matrix(1 0 -0 1.00369 733.284 322.483)"/></g></g><g clip-path="url(#clip15)"><g clip-path="url(#clip16)"><path d="M805.419 372.089C765.622 429.881 631.465 444.301 604.126 393.776 576.787 343.135 656.381 227.666 723.517 220.398 790.538 213.246 845.216 314.297 805.419 372.089Z" fill="#DEC6F0"/></g></g><g clip-path="url(#clip17)"><g clip-path="url(#clip18)"><g clip-path="url(#clip19)"><path d="M797.731 355.838C765.028 403.329 654.786 415.177 632.321 373.659 609.855 332.046 675.261 237.16 730.429 231.188 785.503 225.311 830.434 308.348 797.731 355.838Z" fill="#E3CEF2"/></g></g></g><g clip-path="url(#clip20)"><g clip-path="url(#clip21)"><g clip-path="url(#clip22)"><path d="M788.559 344.868C761.912 383.564 672.085 393.219 653.78 359.389 635.475 325.482 688.768 248.167 733.72 243.301 778.595 238.513 815.205 306.172 788.559 344.868Z" fill="#E8D7F5"/></g></g></g><g clip-path="url(#clip23)"><g clip-path="url(#clip24)"><g clip-path="url(#clip25)"><path d="M778.952 332.904C759.572 361.047 694.244 368.068 680.931 343.465 667.618 318.805 706.377 262.576 739.069 259.037 771.706 255.555 798.331 304.762 778.952 332.904Z" fill="#ECDDF7"/></g></g></g><g clip-path="url(#clip26)"><g clip-path="url(#clip27)"><g clip-path="url(#clip28)"><path d="M768.102 320.08C755.471 338.423 712.891 343 704.214 326.964 695.537 310.891 720.799 274.242 742.108 271.935 763.38 269.665 780.734 301.738 768.102 320.08Z" fill="#F0E3F9"/></g></g></g><g clip-path="url(#clip29)"><g clip-path="url(#clip30)"><g clip-path="url(#clip31)"><path d="M762.122 312.245C753.817 324.306 725.819 327.315 720.113 316.771 714.408 306.202 731.019 282.104 745.03 280.587 759.017 279.095 770.428 300.184 762.122 312.245Z" fill="#F5EBFB"/></g></g></g></g></svg>